<svg width="400" height="100" viewBox="0 0 400 100" fill="none" xmlns="http://www.w3.org/2000/svg">
<path d="M22.1631 85.3097C18.1964 85.3097 14.8093 84.7568 12.0021 83.6509C9.25583 82.466 6.99782 81.0442 5.22802 79.3854C3.51925 77.7266 2.23767 76.0283 1.38329 74.2905C0.528905 72.4737 0.0711987 70.9334 0.0101713 69.6696C-0.0508562 68.8007 0.16274 68.0898 0.65096 67.5368C1.13918 66.9049 1.65791 66.5889 2.20716 66.5889H12.6429C12.8259 66.5889 12.9785 66.6284 13.1006 66.7074C13.2226 66.7864 13.4057 66.9444 13.6498 67.1814C14.4432 67.7343 15.2365 68.4452 16.0299 69.3141C16.8232 70.104 17.7387 70.8149 18.7761 71.4469C19.8136 72.0788 21.0647 72.3948 22.5293 72.3948C24.2381 72.3948 25.6722 71.9603 26.8317 71.0914C27.9913 70.2225 28.571 68.9192 28.571 67.1814C28.571 65.9175 28.2964 64.8906 27.7472 64.1007C27.1979 63.2318 26.0689 62.4024 24.3601 61.6125C22.7124 60.8226 20.2103 60.0327 16.8538 59.2428C13.6803 58.2949 10.9036 57.0706 8.5235 55.5698C6.14343 53.99 4.31261 51.9757 3.03103 49.527C1.74945 46.9993 1.10867 43.9582 1.10867 40.4036C1.10867 37.244 1.90202 34.2029 3.48874 31.2802C5.07545 28.3576 7.3945 25.9879 10.4459 24.1711C13.4972 22.2753 17.2504 21.3274 21.7054 21.3274C25.245 21.3274 28.2964 21.8803 30.8596 22.9862C33.4837 24.0131 35.6807 25.3559 37.4505 27.0147C39.2814 28.6735 40.6545 30.3718 41.5699 32.1096C42.4853 33.8474 42.9735 35.4272 43.0346 36.849C43.0956 37.6389 42.9125 38.3499 42.4853 38.9818C42.0581 39.5347 41.5699 39.8112 41.0206 39.8112H31.5004C31.2562 39.8112 31.0121 39.7717 30.768 39.6927C30.5239 39.5347 30.3103 39.3767 30.1272 39.2187C29.3949 38.7448 28.6626 38.1129 27.9302 37.323C27.1979 36.5331 26.3435 35.8222 25.3671 35.1902C24.3907 34.5583 23.1701 34.2424 21.7054 34.2424C20.0577 34.2424 18.7761 34.7163 17.8607 35.6642C16.9453 36.6121 16.4876 37.8364 16.4876 39.3372C16.4876 40.3641 16.7317 41.312 17.2199 42.1809C17.7692 43.0498 18.8372 43.8397 20.4239 44.5506C22.0716 45.2615 24.6042 46.0514 28.0218 46.9203C32.2327 47.7892 35.5892 49.211 38.0913 51.1858C40.5934 53.0816 42.3632 55.3328 43.4007 57.9395C44.4382 60.4672 44.9569 63.1529 44.9569 65.9965C44.9569 69.7881 44.072 73.1451 42.3022 76.0678C40.5934 78.9904 38.0303 81.2812 34.6128 82.94C31.1952 84.5198 27.0453 85.3097 22.1631 85.3097Z" fill="#333333"/>
<path d="M75.6904 85.3097C70.5641 85.3097 66.2312 84.2433 62.6916 82.1106C59.213 79.9778 56.5278 76.9367 54.636 72.9872C52.8051 68.9587 51.7677 64.1797 51.5236 58.6504C51.4625 57.0706 51.432 55.2933 51.432 53.3185C51.432 51.2648 51.4625 49.4875 51.5236 47.9867C51.7677 42.3784 52.8662 37.5994 54.819 33.6499C56.7719 29.7004 59.4877 26.6593 62.9662 24.5265C66.5058 22.3938 70.7472 21.3274 75.6904 21.3274C80.6947 21.3274 84.9361 22.3938 88.4147 24.5265C91.9543 26.6593 94.7005 29.7004 96.6534 33.6499C98.6063 37.5994 99.7047 42.3784 99.9489 47.9867C100.01 49.4875 100.04 51.2648 100.04 53.3185C100.04 55.2933 100.01 57.0706 99.9489 58.6504C99.7047 64.1797 98.6368 68.9587 96.7449 72.9872C94.9141 76.9367 92.2289 79.9778 88.6893 82.1106C85.2107 84.2433 80.8778 85.3097 75.6904 85.3097ZM75.6904 70.8544C78.4367 70.8544 80.4201 69.788 81.6406 67.6553C82.9222 65.5226 83.6545 62.3235 83.8376 58.058C83.8986 56.8731 83.9292 55.2933 83.9292 53.3185C83.9292 51.3438 83.8986 49.764 83.8376 48.5791C83.6545 44.3926 82.9222 41.233 81.6406 39.1003C80.4201 36.8885 78.4367 35.7827 75.6904 35.7827C73.0052 35.7827 71.0218 36.8885 69.7403 39.1003C68.4587 41.233 67.7569 44.3926 67.6348 48.5791C67.5738 49.764 67.5433 51.3438 67.5433 53.3185C67.5433 55.2933 67.5738 56.8731 67.6348 58.058C67.7569 62.3235 68.4587 65.5226 69.7403 67.6553C71.0218 69.788 73.0052 70.8544 75.6904 70.8544Z" fill="#333333"/>
<path d="M111.332 84.1248C110.661 84.1248 110.112 83.8484 109.684 83.2954C109.257 82.7425 109.044 82.0316 109.044 81.1627V25.4744C109.044 24.6055 109.257 23.8946 109.684 23.3417C110.112 22.7887 110.661 22.5123 111.332 22.5123H121.859C122.531 22.5123 123.08 22.7887 123.507 23.3417C123.934 23.8946 124.148 24.6055 124.148 25.4744V29.9769C125.735 27.5282 127.81 25.4744 130.373 23.8156C132.936 22.1568 135.957 21.3274 139.435 21.3274C142.975 21.3274 146.087 22.3543 148.773 24.408C151.519 26.4618 153.655 29.5029 155.18 33.5314C156.767 37.481 157.56 42.3389 157.56 48.1052V81.1627C157.56 82.0316 157.316 82.7425 156.828 83.2954C156.401 83.8484 155.882 84.1248 155.272 84.1248H143.738C143.127 84.1248 142.578 83.8484 142.09 83.2954C141.663 82.7425 141.449 82.0316 141.449 81.1627V48.8161C141.449 45.1035 140.747 42.2599 139.344 40.2851C138.001 38.2314 135.987 37.2045 133.302 37.2045C130.8 37.2045 128.786 38.2314 127.26 40.2851C125.796 42.2599 125.063 45.1035 125.063 48.8161V81.1627C125.063 82.0316 124.819 82.7425 124.331 83.2954C123.904 83.8484 123.385 84.1248 122.775 84.1248H111.332Z" fill="#333333"/>
<path d="M182.057 85.3097C178.762 85.3097 175.802 84.5198 173.178 82.94C170.614 81.2812 168.57 79.0694 167.044 76.3048C165.519 73.5401 164.756 70.42 164.756 66.9444C164.756 61.3361 166.526 56.9126 170.065 53.674C173.605 50.3564 178.304 48.1052 184.163 46.9203L195.605 44.6691V43.0103C195.605 40.1666 195.147 37.9944 194.232 36.4936C193.317 34.9928 191.638 34.2424 189.197 34.2424C187.489 34.2424 186.085 34.6768 184.986 35.5457C183.949 36.4146 183.125 37.5994 182.515 39.1003C181.966 40.1271 181.203 40.6406 180.226 40.6406H169.974C169.302 40.6406 168.784 40.4036 168.417 39.9297C168.051 39.3767 167.899 38.7448 167.96 38.0339C167.96 36.6121 168.356 34.9928 169.15 33.176C170.004 31.2802 171.286 29.4239 172.994 27.6072C174.703 25.7904 176.9 24.2896 179.585 23.1047C182.271 21.9198 185.505 21.3274 189.289 21.3274C193.256 21.3274 196.643 21.9198 199.45 23.1047C202.257 24.2896 204.515 25.9484 206.224 28.0811C207.994 30.2138 209.306 32.7415 210.16 35.6642C211.015 38.5078 211.442 41.6674 211.442 45.143V81.1627C211.442 82.0316 211.198 82.7425 210.709 83.2954C210.282 83.8484 209.764 84.1248 209.153 84.1248H198.534C197.863 84.1248 197.314 83.8484 196.887 83.2954C196.46 82.7425 196.246 82.0316 196.246 81.1627V77.0157C195.453 78.5165 194.385 79.8989 193.042 81.1627C191.699 82.4265 190.113 83.4139 188.282 84.1248C186.512 84.9147 184.437 85.3097 182.057 85.3097ZM186.359 71.8023C188.129 71.8023 189.716 71.3284 191.12 70.3805C192.584 69.3536 193.713 67.8133 194.507 65.7595C195.361 63.6268 195.788 60.9806 195.788 57.821V56.1622L188.007 57.9395C185.139 58.5714 183.033 59.5588 181.691 60.9016C180.409 62.1655 179.769 63.6663 179.769 65.4041C179.769 66.7469 180.074 67.8923 180.684 68.8402C181.294 69.7881 182.088 70.5385 183.064 71.0914C184.04 71.5653 185.139 71.8023 186.359 71.8023Z" fill="#333333"/>
<path d="M245.764 84.1248C241.858 84.1248 238.471 83.3349 235.603 81.7551C232.796 80.0963 230.629 77.5686 229.104 74.172C227.578 70.6964 226.815 66.2335 226.815 60.7831V38.0339V2.96214C226.815 2.09325 227.029 1.38233 227.456 0.829404C227.944 0.276468 228.493 0 229.104 0H239.722C240.394 0 240.943 0.276468 241.37 0.829404C241.797 1.38233 242.011 2.09325 242.011 2.96214V38.0339V59.1243C242.011 61.81 242.407 63.9428 243.201 65.5226C243.994 67.1024 245.337 67.8923 247.229 67.8923H254.277C254.949 67.8923 255.498 68.1688 255.925 68.7217C256.352 69.2746 256.566 69.9855 256.566 70.8544V81.1627C256.566 82.0316 256.352 82.7425 255.925 83.2954C255.498 83.8484 254.949 84.1248 254.277 84.1248H245.764Z" fill="#333333"/>
<path d="M266.434 84.1248C265.762 84.1248 265.213 83.8484 264.786 83.2954C264.359 82.7425 264.145 82.0316 264.145 81.1627L264.054 44.6691C264.054 43.8002 264.267 43.0893 264.694 42.5363C265.122 41.9834 265.671 41.7069 266.342 41.7069H277.144C277.754 41.7069 278.273 41.9834 278.7 42.5363C279.188 43.0893 279.433 43.8002 279.433 44.6691L279.524 81.1627C279.524 82.0316 279.28 82.7425 278.792 83.2954C278.365 83.8484 277.846 84.1248 277.236 84.1248H266.434Z" fill="#0D6EFD"/>
<rect x="214.648" y="16.3428" width="65.2363" height="16.3428" rx="1.57068" fill="#0D6EFD"/>
<path d="M291.501 100C291.038 100 290.659 99.8093 290.364 99.428C290.07 99.0466 289.922 98.5564 289.922 97.9571V44.0257C289.922 43.4265 290.07 42.9362 290.364 42.5549C290.659 42.1735 291.038 41.9829 291.501 41.9829H298.635C299.055 41.9829 299.413 42.1735 299.708 42.5549C300.045 42.9362 300.213 43.4265 300.213 44.0257V47.0491C301.181 45.3604 302.465 43.9712 304.064 42.8817C305.663 41.7377 307.641 41.1657 309.998 41.1657C312.103 41.1657 313.955 41.6015 315.554 42.4731C317.153 43.2903 318.521 44.516 319.657 46.1503C320.794 47.7846 321.678 49.773 322.309 52.1154C322.982 54.4579 323.361 57.1545 323.445 60.2051C323.487 61.2947 323.509 62.3025 323.509 63.2286C323.509 64.1547 323.487 65.1625 323.445 66.252C323.361 69.1937 323.003 71.8358 322.372 74.1783C321.741 76.5207 320.857 78.5091 319.721 80.1434C318.584 81.7777 317.195 83.0579 315.554 83.984C313.955 84.8556 312.103 85.2914 309.998 85.2914C307.936 85.2914 306.126 84.8284 304.569 83.9023C303.054 82.9217 301.791 81.5598 300.781 79.8166V97.9571C300.781 98.5564 300.634 99.0466 300.339 99.428C300.045 99.8093 299.666 100 299.203 100H291.501ZM306.589 74.3417C308.02 74.3417 309.136 73.9604 309.935 73.1977C310.735 72.435 311.303 71.4 311.64 70.0926C312.019 68.7851 312.25 67.3415 312.334 65.7617C312.418 64.0729 312.418 62.3842 312.334 60.6954C312.25 59.1156 312.019 57.672 311.64 56.3646C311.303 55.0571 310.735 54.0221 309.935 53.2594C309.136 52.4968 308.02 52.1154 306.589 52.1154C305.2 52.1154 304.085 52.524 303.243 53.3411C302.401 54.1038 301.791 55.1116 301.412 56.3646C301.034 57.6175 300.823 58.9794 300.781 60.4503C300.739 61.4853 300.718 62.4931 300.718 63.4737C300.718 64.4543 300.739 65.4893 300.781 66.5788C300.823 67.9408 301.055 69.2209 301.475 70.4194C301.896 71.5634 302.528 72.5167 303.369 73.2794C304.211 73.9876 305.284 74.3417 306.589 74.3417Z" fill="#333333"/>
<path d="M344.901 85.2914C339.935 85.2914 335.979 83.5482 333.033 80.0617C330.086 76.5752 328.55 71.4 328.424 64.536C328.424 64.1547 328.424 63.6644 328.424 63.0651C328.424 62.4659 328.424 62.0028 328.424 61.676C328.55 57.3724 329.287 53.6952 330.634 50.6446C332.022 47.5394 333.916 45.197 336.315 43.6171C338.757 41.9829 341.597 41.1657 344.838 41.1657C348.542 41.1657 351.593 42.119 353.992 44.0257C356.433 45.9324 358.264 48.52 359.485 51.7886C360.705 55.0571 361.316 58.7888 361.316 62.9834V64.9446C361.316 65.5438 361.147 66.0341 360.811 66.4154C360.516 66.7967 360.158 66.9874 359.737 66.9874H339.535C339.535 67.0419 339.535 67.1236 339.535 67.2326C339.535 67.3415 339.535 67.4505 339.535 67.5594C339.577 69.1392 339.788 70.5828 340.166 71.8903C340.545 73.1977 341.134 74.2327 341.934 74.9954C342.734 75.7581 343.702 76.1394 344.838 76.1394C345.68 76.1394 346.374 75.976 346.922 75.6491C347.511 75.2678 347.995 74.8592 348.374 74.4234C348.752 73.9331 349.047 73.5246 349.257 73.1977C349.636 72.6529 349.931 72.3261 350.141 72.2171C350.394 72.0537 350.773 71.972 351.278 71.972H359.106C359.527 71.972 359.864 72.1354 360.116 72.4623C360.411 72.7346 360.537 73.1432 360.495 73.688C360.453 74.6141 360.095 75.7308 359.422 77.0383C358.748 78.3457 357.759 79.6531 356.454 80.9606C355.192 82.2135 353.593 83.2486 351.656 84.0657C349.72 84.8828 347.469 85.2914 344.901 85.2914ZM339.535 58.8977H350.204V58.7343C350.204 56.991 349.994 55.4657 349.573 54.1583C349.194 52.8509 348.584 51.843 347.742 51.1349C346.943 50.4267 345.975 50.0726 344.838 50.0726C343.702 50.0726 342.734 50.4267 341.934 51.1349C341.177 51.843 340.587 52.8509 340.166 54.1583C339.746 55.4657 339.535 56.991 339.535 58.7343V58.8977Z" fill="#333333"/>
<path d="M368.813 84.4743C368.35 84.4743 367.971 84.2836 367.676 83.9023C367.382 83.5209 367.234 83.0306 367.234 82.4314V28.5C367.234 27.9008 367.382 27.4105 367.676 27.0292C367.971 26.6478 368.35 26.4572 368.813 26.4572H376.136C376.557 26.4572 376.914 26.6478 377.209 27.0292C377.546 27.4105 377.714 27.9008 377.714 28.5V55.8743L386.489 43.372C386.742 42.9907 387.016 42.6638 387.31 42.3914C387.605 42.119 388.026 41.9829 388.573 41.9829H397.033C397.411 41.9829 397.727 42.1735 397.979 42.5549C398.274 42.8817 398.421 43.2903 398.421 43.7806C398.421 43.9985 398.379 44.2436 398.295 44.516C398.211 44.7884 398.085 45.0063 397.916 45.1697L386.553 61.0223L399.495 81.3691C399.831 81.8049 400 82.2407 400 82.6766C400 83.1668 399.852 83.6026 399.558 83.984C399.305 84.3108 398.969 84.4743 398.548 84.4743H389.899C389.267 84.4743 388.804 84.3381 388.51 84.0657C388.215 83.7388 387.942 83.412 387.689 83.0851L377.714 67.5594V82.4314C377.714 83.0306 377.546 83.5209 377.209 83.9023C376.914 84.2836 376.557 84.4743 376.136 84.4743H368.813Z" fill="#333333"/>
</svg>
